# xmcd
#
# Track frame offsets:
#	150
#	11052
#	28047
#	45950
#	55612
#	73185
#	90127
#	107530
#	119287
#	134500
#	149645
#	161967
#	178842
#	192597
#	205450
#	216922
#	228950
#	242902
#
# Disc length: 3510 seconds
#
# Revision: 8
# Processed by: cddbd v1.5.2PL0 Copyright (c) Steve Scherf et al.
# Submitted via: audiograbber 1.83.01
#
DISCID=0a0db412
DTITLE=Various Artist - Fröhliche Weihnacht überall - In 18 Liedern um die Welt
DYEAR=2004
DGENRE=Christmas
TTITLE0=Sissi Perlinger - Leise rieselt der Schnee (Japan)
TTITLE1=Ivan Rebroff - Lasst uns froh und munter sein (Russland)
TTITLE2=Esther Schweins and Tim Fischer - Es ist ein Ros' entsprungen (Thailand)
TTITLE3=Peter Lohmeyer - Stille Nacht, heilige Nacht (Kenia)
TTITLE4=Kai Wingenfelder and Rainer Schumann - Rudolph, das kleine Rentier (indie
TTITLE4=n)
TTITLE5=Jan-Christof Scheibe feat. Gökhan Asil and B-Low - O du fröhliche, o du s
TTITLE5=elige (Türkei)
TTITLE6=Sebastian Krumbiegel - Ihr Kinderlein, kommet (Griechenland)
TTITLE7=Dominique Horwitz - Schlittenfahr'n (Rumänien)
TTITLE8=Jan-Christof Scheibe - Maria durch ein' Dornwald ging (Spanien)
TTITLE9=Tim Fischer - Was soll das bedeuten (Marocco)
TTITLE10=Max Raabe - Alle Jahre wieder (Argentinien)
TTITLE11=Jan-Christof Scheibe - Es kommt ein Schiff, geladen (Kolumbien)
TTITLE12=Inga Rumpf - Kommet, ihr Hirten (Kuba)
TTITLE13=Rolf Stahlhofen - O Tannenbaum, o Tannenbaum (Jamaika)
TTITLE14=Sebastian Krumiegel - Sissi Perlinger - Max Raabe - Inga Rumpf - Jan-Chris
TTITLE14=tof Scheibe - Esther Schweins - Rolf Stahlhofen - Morgen, Kinder, wird's
TTITLE14=was geben (Brasilien)
TTITLE15=Ina Müller - Am Weihnachtsbaum die Lichter brennen (Mexiko)
TTITLE16=Max Raabe - Morgen kommt der Weihnachtsmann (USA)
TTITLE17=Jan-Christof Scheibe - Joseph, lieber Joseph mein (USA)
EXTD=
EXTT0=
EXTT1=
EXTT2=
EXTT3=
EXTT4=
EXTT5=
EXTT6=
EXTT7=
EXTT8=
EXTT9=
EXTT10=
EXTT11=
EXTT12=
EXTT13=
EXTT14=
EXTT15=
EXTT16=
EXTT17=
PLAYORDER=
